<?xml version="1.0" encoding="UTF-8" standalone="no"?>
<!-- Created with Inkscape (http://www.inkscape.org/) -->

<svg
   version="1.1"
   id="svg824"
   xml:space="preserve"
   width="154.9456"
   height="277.0416"
   viewBox="0 0 154.9456 277.0416"
   xmlns="http://www.w3.org/2000/svg"
   xmlns:svg="http://www.w3.org/2000/svg"><defs
     id="defs828"><clipPath
       clipPathUnits="userSpaceOnUse"
       id="clipPath840"><path
         d="M 0,500 H 500 V 0 H 0 Z"
         id="path838" /></clipPath><clipPath
       clipPathUnits="userSpaceOnUse"
       id="clipPath2318"><path
         d="M 0,500 H 500 V 0 H 0 Z"
         id="path2316" /></clipPath></defs><g
     id="g830"
     transform="matrix(1.3333333,0,0,-1.3333333,-255.86053,327.35413)"><g
       id="g2070"
       transform="translate(302.7148,49.8818)"><path
         d="m 0,0 c 0,-1.656 -1.343,-3 -3,-3 h -1.43 c -1.657,0 -3,1.344 -3,3 v 49.896 c 0,1.656 1.343,3 3,3 H -3 c 1.657,0 3,-1.344 3,-3 z"
         style="fill:#58595b;fill-opacity:1;fill-rule:nonzero;stroke:none"
         id="path2072" /></g><g
       id="g2074"
       transform="translate(204.7148,49.8818)"><path
         d="m 0,0 c 0,-1.656 -1.343,-3 -3,-3 h -1.43 c -1.657,0 -3,1.344 -3,3 v 49.896 c 0,1.656 1.343,3 3,3 H -3 c 1.657,0 3,-1.344 3,-3 z"
         style="fill:#58595b;fill-opacity:1;fill-rule:nonzero;stroke:none"
         id="path2076" /></g><g
       id="g2078"
       transform="translate(302.7148,177.8818)"><path
         d="m 0,0 c 0,-1.657 -1.343,-3 -3,-3 h -1.43 c -1.657,0 -3,1.343 -3,3 v 49.896 c 0,1.656 1.343,3 3,3 H -3 c 1.657,0 3,-1.344 3,-3 z"
         style="fill:#58595b;fill-opacity:1;fill-rule:nonzero;stroke:none"
         id="path2080" /></g><g
       id="g2082"
       transform="translate(204.7148,177.8818)"><path
         d="m 0,0 c 0,-1.657 -1.343,-3 -3,-3 h -1.43 c -1.657,0 -3,1.343 -3,3 v 49.896 c 0,1.656 1.343,3 3,3 H -3 c 1.657,0 3,-1.344 3,-3 z"
         style="fill:#58595b;fill-opacity:1;fill-rule:nonzero;stroke:none"
         id="path2084" /></g><g
       id="g2086"
       transform="translate(303.2002,46.5156)"><path
         d="m 0,0 c 0.01,-0.061 0.02,-0.121 0.02,-0.19 0,-0.191 -0.03,-0.361 -0.07,-0.54 -0.44,-3.63 -2.99,-6.6 -6.39,-7.641 -0.86,-0.27 -1.76,-0.41 -2.71,-0.41 h -88.1 c -0.95,0 -1.851,0.14 -2.71,0.41 -3.4,1.041 -5.95,4.011 -6.391,7.641 -0.039,0.179 -0.07,0.349 -0.07,0.54 0,0.069 0.011,0.129 0.021,0.19 -0.01,0.129 -0.021,0.26 -0.021,0.39 l 0.111,0.069 c 0.28,0.891 1.1,1.541 2.081,1.541 h 1.089 c 0.15,0 0.28,-0.021 0.42,-0.041 H -3.681 C -3.54,1.979 -3.41,2 -3.26,2 h 1.09 c 0.98,0 1.8,-0.65 2.08,-1.531 L 0.02,0.39 C 0.02,0.26 0.01,0.129 0,0"
         style="fill:#6d6e70;fill-opacity:1;fill-rule:nonzero;stroke:none"
         id="path2088" /></g><g
       id="g2090"
       transform="translate(221.4805,37.7344)"><path
         d="m 0,0 h -12.961 c 0.07,0.511 0.311,0.971 0.65,1.32 0.42,0.41 0.991,0.67 1.621,0.67 h 8.419 C -1.11,1.99 -0.15,1.121 0,0"
         style="fill:#be1e2d;fill-opacity:1;fill-rule:nonzero;stroke:none"
         id="path2092" /></g><g
       id="g2094"
       transform="translate(291.4805,37.7344)"><path
         d="m 0,0 h -12.961 c 0.07,0.511 0.311,0.971 0.65,1.32 0.42,0.41 0.991,0.67 1.621,0.67 h 8.419 C -1.11,1.99 -0.15,1.121 0,0"
         style="fill:#be1e2d;fill-opacity:1;fill-rule:nonzero;stroke:none"
         id="path2096" /></g><g
       id="g2098"
       transform="translate(303.2002,236.7344)"><path
         d="m 0,0 c 0.01,-0.129 0.02,-5.26 0.02,-5.389 l -0.11,-0.07 C -0.37,-6.35 -1.19,-7 -2.17,-7 h -1.09 c -0.15,0 -0.28,0.021 -0.421,0.041 H -102.72 C -102.86,-6.979 -102.99,-7 -103.14,-7 h -1.089 c -0.981,0 -1.801,0.65 -2.081,1.531 l -0.111,0.08 c 0,0.129 0.011,5.26 0.021,5.389 -0.01,0.061 -0.021,0.121 -0.021,0.191 0,0.19 0.031,0.36 0.07,0.539 0.441,3.631 2.991,6.6 6.391,7.641 0.859,0.27 1.76,0.41 2.71,0.41 h 88.1 c 0.95,0 1.85,-0.14 2.71,-0.41 C -3.04,7.33 -0.49,4.361 -0.05,0.73 -0.01,0.551 0.02,0.381 0.02,0.191 0.02,0.121 0.01,0.061 0,0"
         style="fill:#6d6e70;fill-opacity:1;fill-rule:nonzero;stroke:none"
         id="path2100" /></g><g
       id="g2102"
       transform="translate(300.9805,234.625)"><path
         d="m 0,0 v -183.39 h -0.011 v -1.72 c 0,-1.96 -0.639,-3.76 -1.71,-5.21 -0.3,-0.409 -0.639,-0.79 -1,-1.13 -1.569,-1.51 -3.71,-2.44 -6.069,-2.44 h -84.38 c -2.36,0 -4.5,0.93 -6.07,2.44 -0.37,0.34 -0.7,0.721 -1,1.13 -1.08,1.45 -1.72,3.25 -1.72,5.21 V -1.12 h 0.009 v 1.13 c 0.091,0.051 0.18,0.11 0.27,0.16 1.5,0.86 3.281,1.68 5.31,2.45 4.031,1.51 9.04,2.81 14.79,3.83 0.841,0.15 1.69,0.29 2.56,0.43 0.061,0.01 0.13,0.02 0.19,0.03 0.27,0.04 0.531,0.08 0.81,0.13 0.05,0 0.11,0.01 0.161,0.021 0.06,0.009 0.11,0.019 0.17,0.019 0.779,0.12 1.58,0.231 2.39,0.34 7.349,0.97 15.599,1.51 24.32,1.51 h 0.399 c 1.78,0 3.56,-0.03 5.301,-0.08 4.28,-0.12 8.429,-0.36 12.38,-0.74 1.71,-0.15 3.389,-0.33 5.019,-0.52 0.41,-0.05 0.82,-0.1 1.221,-0.16 0.809,-0.11 1.599,-0.22 2.389,-0.34 0.06,0 0.111,-0.01 0.17,-0.02 0.05,-0.009 0.111,-0.02 0.161,-0.02 0.269,-0.05 0.54,-0.09 0.809,-0.13 0.061,-0.01 0.11,-0.02 0.17,-0.03 h 0.021 c 0.65,-0.11 1.29,-0.21 1.919,-0.32 0.22,-0.04 0.43,-0.08 0.64,-0.12 C -14.62,5.43 -9.61,4.13 -5.591,2.62 -3.551,1.85 -1.78,1.04 -0.28,0.17 -0.19,0.11 -0.091,0.061 0,0"
         style="fill:#b21628;fill-opacity:1;fill-rule:nonzero;stroke:none"
         id="path2104" /></g><g
       id="g2106"
       transform="translate(306.5586,165.4746)"><path
         d="m 0,0 h -1.435 c -0.046,2.998 -0.601,3.396 -3.877,3.396 h -1.913 v 1.316 c 0,0.479 -0.389,0.869 -0.869,0.869 h -0.57 V 0.728 h 0.57 c 0.43,0 0.771,0.317 0.841,0.727 h 1.941 c 0.834,0 1.696,0 1.836,-0.048 0.084,-0.158 0.1,-0.749 0.104,-1.407 h -1.127 c -0.854,0 -1.546,-0.692 -1.546,-1.547 0,-0.196 0.04,-0.382 0.107,-0.556 h 7.376 c 0.067,0.174 0.108,0.36 0.108,0.556 C 1.546,-0.692 0.854,0 0,0"
         style="fill:#232323;fill-opacity:1;fill-rule:nonzero;stroke:none"
         id="path2108" /></g><g
       id="g2110"
       transform="translate(193.4414,165.4746)"><path
         d="m 0,0 h 1.435 c 0.046,2.998 0.601,3.396 3.877,3.396 h 1.913 v 1.316 c 0,0.479 0.389,0.869 0.869,0.869 h 0.57 V 0.728 h -0.57 c -0.43,0 -0.771,0.317 -0.841,0.727 H 5.312 c -0.834,0 -1.696,0 -1.836,-0.048 C 3.392,1.249 3.376,0.658 3.372,0 h 1.127 c 0.854,0 1.546,-0.692 1.546,-1.547 0,-0.196 -0.04,-0.382 -0.107,-0.556 h -7.376 c -0.067,0.174 -0.108,0.36 -0.108,0.556 C -1.546,-0.692 -0.854,0 0,0"
         style="fill:#232323;fill-opacity:1;fill-rule:nonzero;stroke:none"
         id="path2112" /></g><g
       id="g2114"
       transform="translate(221.3105,245.5156)"><path
         d="m 0,0 c -0.351,-0.811 -1.16,-1.371 -2.101,-1.371 h -8.42 c -0.94,0 -1.75,0.56 -2.1,1.371 z"
         style="fill:#faaf40;fill-opacity:1;fill-rule:nonzero;stroke:none"
         id="path2116" /></g><g
       id="g2118"
       transform="translate(291.3096,245.5156)"><path
         d="m 0,0 c -0.35,-0.811 -1.159,-1.371 -2.1,-1.371 h -8.42 c -0.94,0 -1.75,0.56 -2.099,1.371 z"
         style="fill:#faaf40;fill-opacity:1;fill-rule:nonzero;stroke:none"
         id="path2120" /></g><g
       id="g2122"
       transform="translate(200.4277,123.127)"><path
         d="m 0,0 c -0.48,0 -0.869,0.39 -0.869,0.869 v 7.969 c 0,0.48 0.389,0.869 0.869,0.869 h 0.145 c 0.48,0 0.869,-0.389 0.869,-0.869 V 0.869 C 1.014,0.39 0.625,0 0.145,0 Z"
         style="fill:#404041;fill-opacity:1;fill-rule:nonzero;stroke:none"
         id="path2124" /></g><g
       id="g2126"
       transform="translate(299.4277,123.127)"><path
         d="m 0,0 c -0.48,0 -0.869,0.39 -0.869,0.869 v 7.969 c 0,0.48 0.389,0.869 0.869,0.869 h 0.145 c 0.48,0 0.869,-0.389 0.869,-0.869 V 0.869 C 1.014,0.39 0.625,0 0.145,0 Z"
         style="fill:#404041;fill-opacity:1;fill-rule:nonzero;stroke:none"
         id="path2128" /></g><g
       id="g2130"
       transform="translate(221.5,43.5537)"><path
         d="m 0,0 c 0,-0.849 -1.025,-1.536 -2.29,-1.536 h -8.42 c -1.265,0 -2.29,0.687 -2.29,1.536 0,0.849 1.025,1.536 2.29,1.536 h 8.42 C -1.025,1.536 0,0.849 0,0"
         style="fill:#faaf40;fill-opacity:1;fill-rule:nonzero;stroke:none"
         id="path2132" /></g><g
       id="g2134"
       transform="translate(291.5,43.5537)"><path
         d="m 0,0 c 0,-0.849 -1.025,-1.536 -2.29,-1.536 h -8.42 c -1.265,0 -2.29,0.687 -2.29,1.536 0,0.849 1.025,1.536 2.29,1.536 h 8.42 C -1.025,1.536 0,0.849 0,0"
         style="fill:#faaf40;fill-opacity:1;fill-rule:nonzero;stroke:none"
         id="path2136" /></g><g
       id="g2138"
       transform="translate(228.3496,239.8652)"><path
         d="m 0,0 c -0.25,0 -0.467,0.187 -0.496,0.442 -0.031,0.275 0.165,0.523 0.439,0.554 6.848,0.793 14.151,1.193 21.707,1.193 h 0.401 c 1.665,0 3.453,-0.026 5.314,-0.08 4.406,-0.123 8.582,-0.373 12.413,-0.742 1.211,-0.109 2.405,-0.23 3.577,-0.36 0.276,-0.03 0.473,-0.278 0.443,-0.552 -0.03,-0.275 -0.282,-0.473 -0.552,-0.442 -1.167,0.13 -2.354,0.249 -3.56,0.358 -3.813,0.367 -7.966,0.615 -12.349,0.738 -1.853,0.054 -3.631,0.08 -5.286,0.08 H 21.65 C 14.133,1.189 6.867,0.791 0.059,0.004 0.039,0.001 0.02,0 0,0"
         style="fill:#a01728;fill-opacity:1;fill-rule:nonzero;stroke:none"
         id="path2140" /></g><g
       id="g2142"
       transform="translate(228.3496,237.8652)"><path
         d="m 0,0 c -0.25,0 -0.467,0.187 -0.496,0.442 -0.031,0.275 0.165,0.523 0.439,0.554 6.848,0.793 14.151,1.193 21.707,1.193 h 0.401 c 1.665,0 3.453,-0.026 5.314,-0.08 4.406,-0.123 8.582,-0.373 12.413,-0.742 1.211,-0.109 2.405,-0.23 3.577,-0.36 0.276,-0.03 0.473,-0.278 0.443,-0.552 -0.03,-0.275 -0.282,-0.465 -0.552,-0.442 -1.167,0.13 -2.354,0.249 -3.56,0.358 -3.813,0.367 -7.966,0.615 -12.349,0.738 -1.853,0.054 -3.631,0.08 -5.286,0.08 H 21.65 C 14.133,1.189 6.867,0.791 0.059,0.004 0.039,0.001 0.02,0 0,0"
         style="fill:#a01728;fill-opacity:1;fill-rule:nonzero;stroke:none"
         id="path2144" /></g><g
       id="g2146"
       transform="translate(228.3496,235.8652)"><path
         d="m 0,0 c -0.25,0 -0.467,0.187 -0.496,0.442 -0.031,0.275 0.165,0.523 0.439,0.554 6.848,0.793 14.151,1.193 21.707,1.193 h 0.401 c 1.665,0 3.453,-0.026 5.314,-0.08 4.406,-0.123 8.582,-0.373 12.413,-0.742 1.211,-0.109 2.405,-0.23 3.577,-0.36 0.276,-0.03 0.473,-0.278 0.443,-0.552 -0.03,-0.275 -0.282,-0.466 -0.552,-0.442 -1.167,0.13 -2.354,0.249 -3.56,0.358 -3.813,0.367 -7.966,0.615 -12.349,0.738 -1.853,0.054 -3.631,0.08 -5.286,0.08 H 21.65 C 14.133,1.189 6.867,0.791 0.059,0.004 0.039,0.001 0.02,0 0,0"
         style="fill:#a01728;fill-opacity:1;fill-rule:nonzero;stroke:none"
         id="path2148" /></g><g
       id="g2150"
       transform="translate(293.6797,185.2754)"><path
         d="m 0,0 h -8.47 l -10.889,44.59 v 12.189 c 0.809,-0.109 1.599,-0.219 2.389,-0.34 V 45.5 Z"
         style="fill:#a01728;fill-opacity:1;fill-rule:nonzero;stroke:none"
         id="path2152" /></g><g
       id="g2154"
       transform="translate(225.6802,242.0449)"><path
         d="m 0,0 v -12.18 l -10.89,-44.59 h -8.47 l 16.97,45.5 V -0.34 C -1.61,-0.22 -0.81,-0.109 0,0"
         style="fill:#a01728;fill-opacity:1;fill-rule:nonzero;stroke:none"
         id="path2156" /></g><g
       id="g2158"
       transform="translate(296.5801,183.9678)"><path
         d="m 0,0 v -121.99 c -0.6,-0.31 -1.271,-0.62 -1.99,-0.92 -5.29,-2.2 -13.6,-3.96 -23.67,-5 -1.66,-0.17 -3.37,-0.33 -5.13,-0.46 -3.82,-0.28 -7.84,-0.47 -11.99,-0.54 -1.25,-0.02 -2.52,-0.03 -3.8,-0.03 -0.359,0 -0.71,0 -1.061,0.01 -1.629,0 -3.239,0.03 -4.819,0.07 -0.64,0.009 -1.27,0.03 -1.899,0.049 -15.891,0.561 -29.362,2.801 -36.811,5.901 -0.721,0.3 -1.391,0.61 -1.99,0.92 V 0 c 0.18,0.12 0.38,0.22 0.57,0.34 8.13,4.7 25.68,7.95 46.01,7.95 h 0.359 c 1.621,0 3.231,-0.03 4.811,-0.07 3.889,-0.11 7.65,-0.33 11.24,-0.67 1.55,-0.141 3.07,-0.3 4.55,-0.481 1.53,-0.189 3.02,-0.399 4.47,-0.629 0.6,-0.1 1.18,-0.19 1.76,-0.291 C -11.26,4.739 -4.7,2.729 -0.57,0.34 -0.38,0.22 -0.18,0.12 0,0"
         style="fill:#404041;fill-opacity:1;fill-rule:nonzero;stroke:none"
         id="path2160" /></g><g
       id="g2162"
       transform="translate(222.8906,132.0176)"><path
         d="m 0,0 v -1.939 l -19.471,12 V 12 Z"
         style="fill:#58595b;fill-opacity:1;fill-rule:nonzero;stroke:none"
         id="path2164" /></g><g
       id="g2166"
       transform="translate(222.8906,125.2178)"><path
         d="m 0,0 v -4.851 l -19.471,12 V 12 Z"
         style="fill:#58595b;fill-opacity:1;fill-rule:nonzero;stroke:none"
         id="path2168" /></g><g
       id="g2170"
       transform="translate(222.8906,95.2178)"><path
         d="m 0,0 v -9.851 l -19.471,12 V 12 Z"
         style="fill:#58595b;fill-opacity:1;fill-rule:nonzero;stroke:none"
         id="path2172" /></g><g
       id="g2174"
       transform="translate(277.1904,190.1172)"><path
         d="M 0,0 -14.341,-23.279 H -16.28 L -1.761,0.291 C -1.16,0.19 -0.58,0.101 0,0"
         style="fill:#58595b;fill-opacity:1;fill-rule:nonzero;stroke:none"
         id="path2176" /></g><g
       id="g2178"
       transform="translate(270.96,191.0371)"><path
         d="m 0,0 -14.91,-24.199 h -4.85 L -4.55,0.48 C -3,0.34 -1.479,0.181 0,0"
         style="fill:#58595b;fill-opacity:1;fill-rule:nonzero;stroke:none"
         id="path2180" /></g><g
       id="g2182"
       transform="translate(258.4297,186.457)"><path
         d="m 0,0 -12.08,-19.619 h -4.859 l 9.7,15.74 h -6.8 l 5.969,9.68 c 1.621,0 3.23,-0.03 4.81,-0.071 L -6.79,0 Z"
         style="fill:#58595b;fill-opacity:1;fill-rule:nonzero;stroke:none"
         id="path2184" /></g><g
       id="g2186"
       transform="translate(296.5801,75.8174)"><path
         d="m 0,0 v -1.94 l -21.78,13.42 v 1.941 z"
         style="fill:#58595b;fill-opacity:1;fill-rule:nonzero;stroke:none"
         id="path2188" /></g><g
       id="g2190"
       transform="translate(296.5801,85.5273)"><path
         d="M 0,0 V -4.859 L -21.78,8.57 v 4.85 z"
         style="fill:#58595b;fill-opacity:1;fill-rule:nonzero;stroke:none"
         id="path2192" /></g><g
       id="g2194"
       transform="translate(296.5801,130.5273)"><path
         d="M 0,0 V -9.859 L -21.78,3.57 v 9.85 z"
         style="fill:#58595b;fill-opacity:1;fill-rule:nonzero;stroke:none"
         id="path2196" /></g><g
       id="g2198"
       transform="translate(257.7695,77.2578)"><path
         d="m 0,0 -13.649,-22.15 c -0.64,0.009 -1.271,0.03 -1.9,0.049 L -1.939,0 Z"
         style="fill:#58595b;fill-opacity:1;fill-rule:nonzero;stroke:none"
         id="path2200" /></g><g
       id="g2202"
       transform="translate(267.4805,77.2578)"><path
         d="m 0,0 -13.681,-22.2 c -1.25,-0.02 -2.519,-0.03 -3.799,-0.03 -0.36,0 -0.71,0 -1.061,0.01 L -4.851,0 Z"
         style="fill:#58595b;fill-opacity:1;fill-rule:nonzero;stroke:none"
         id="path2204" /></g><g
       id="g2206"
       transform="translate(267.4902,61.5176)"><path
         d="M 0,0 H 6.8 L 3.43,-5.46 C 1.77,-5.63 0.06,-5.79 -1.7,-5.92 l 1.25,2.04 H -7.24 L 4.84,15.74 H 9.7 Z"
         style="fill:#58595b;fill-opacity:1;fill-rule:nonzero;stroke:none"
         id="path2208" /></g><g
       id="g2210"
       transform="translate(295.75,190.6777)"><path
         d="m 0,0 -8,-27.23 v -8.418 l 11.5,17.824 z"
         style="fill:#b21628;fill-opacity:1;fill-rule:nonzero;stroke:none"
         id="path2212" /></g><g
       id="g2214"
       transform="translate(204.25,190.6777)"><path
         d="m 0,0 8,-27.23 v -8.418 l -11.5,17.824 z"
         style="fill:#b21628;fill-opacity:1;fill-rule:nonzero;stroke:none"
         id="path2216" /></g><g
       id="g2218"
       transform="translate(204.251,50.5273)"><path
         d="M 0,0 8,21.503 V 28.15 L -3.5,14.075 Z"
         style="fill:#b21628;fill-opacity:1;fill-rule:nonzero;stroke:none"
         id="path2220" /></g><g
       id="g2222"
       transform="translate(295.751,50.5273)"><path
         d="M 0,0 -8,21.503 V 28.15 L 3.5,14.075 Z"
         style="fill:#b21628;fill-opacity:1;fill-rule:nonzero;stroke:none"
         id="path2224" /></g><path
       d="M 300.113,109.641 H 199.886 v 12.326 h 100.227 z"
       style="fill:#b21628;fill-opacity:1;fill-rule:nonzero;stroke:none"
       id="path2226" /><g
       id="g2228"
       transform="translate(212.1797,72.9775)"><path
         d="m 0,0 -10.439,-15.36 v -7.44 c -0.371,0.34 -0.701,0.72 -1,1.13 v 6.62 L -0.83,0.56 Z"
         style="fill:#a01728;fill-opacity:1;fill-rule:nonzero;stroke:none"
         id="path2230" /></g><g
       id="g2232"
       transform="translate(299.2598,57.9277)"><path
         d="m 0,0 v -6.62 c -0.3,-0.41 -0.64,-0.79 -1,-1.13 v 7.439 l -10.439,15.361 0.83,0.559 z"
         style="fill:#a01728;fill-opacity:1;fill-rule:nonzero;stroke:none"
         id="path2234" /></g><g
       id="g2236"
       transform="translate(209.9102,160.9551)"><path
         d="M 0,0 -10.891,23.939 V 22.24 L -1.01,-0.311 -0.9,-44.65 h -9.991 v -1 H 0.08 Z"
         style="fill:#a01728;fill-opacity:1;fill-rule:nonzero;stroke:none"
         id="path2238" /></g><g
       id="g2240"
       transform="translate(300.9805,183.1953)"><path
         d="m 0,0 v 1.699 l -10.891,-23.939 -0.08,-45.651 H 0 v 1 h -9.99 l 0.109,44.34 z"
         style="fill:#a01728;fill-opacity:1;fill-rule:nonzero;stroke:none"
         id="path2242" /></g><g
       id="g2244"
       transform="translate(289.4287,70.6924)"><path
         d="m 0,0 c 0.635,0.269 1.228,0.536 1.757,0.814 v 8.265 71.81 9.866 c -0.155,0.101 -0.332,0.194 -0.499,0.296 -7.195,4.155 -22.709,7.034 -40.687,7.034 -17.976,0 -33.49,-2.879 -40.685,-7.034 -0.167,-0.102 -0.344,-0.195 -0.5,-0.296 V 80.889 9.079 0.814 c 0.531,-0.278 1.123,-0.545 1.757,-0.814 7.642,-3.175 22.439,-5.331 39.428,-5.331 16.991,0 31.787,2.156 39.429,5.331"
         style="fill:#c61e32;fill-opacity:1;fill-rule:nonzero;stroke:none"
         id="path2246" /></g><g
       id="g2248"
       transform="translate(212.5791,237.1494)"><path
         d="m 0,0 c -4.378,-0.78 -7.74,-2.471 -7.507,-3.776 0.233,-1.306 3.97,-1.732 8.349,-0.953 4.378,0.781 7.739,2.471 7.506,3.777 C 8.116,0.354 4.378,0.78 0,0"
         style="fill:#ffffff;fill-opacity:1;fill-rule:nonzero;stroke:none"
         id="path2250" /></g><g
       id="g2252"
       transform="translate(287.4209,237.1494)"><path
         d="M 0,0 C -4.378,0.78 -8.116,0.354 -8.349,-0.952 -8.581,-2.258 -5.22,-3.948 -0.842,-4.729 3.536,-5.508 7.274,-5.082 7.507,-3.776 7.739,-2.471 4.378,-0.78 0,0"
         style="fill:#ffffff;fill-opacity:1;fill-rule:nonzero;stroke:none"
         id="path2254" /></g><g
       id="g2256"
       transform="translate(250,81.2773)"><path
         d="m 0,0 c -12.8,0 -23.179,10.378 -23.179,23.178 0,12.801 10.379,23.178 23.179,23.178 12.8,0 23.179,-10.377 23.179,-23.178 C 23.179,10.378 12.8,0 0,0"
         style="fill:#262626;fill-opacity:1;fill-rule:nonzero;stroke:none"
         id="path2258" /></g><g
       id="g2260"
       transform="translate(250,83.2021)"><path
         d="m 0,0 c -11.738,0 -21.254,9.516 -21.254,21.253 0,11.738 9.516,21.254 21.254,21.254 11.738,0 21.254,-9.516 21.254,-21.254 C 21.254,9.516 11.738,0 0,0"
         style="fill:#404041;fill-opacity:1;fill-rule:nonzero;stroke:none"
         id="path2262" /></g><g
       id="g2264"
       transform="translate(250,91.9951)"><path
         d="m 0,0 c -6.883,0 -12.462,5.577 -12.462,12.46 0,6.882 5.579,12.461 12.462,12.461 6.882,0 12.462,-5.579 12.462,-12.461 C 12.462,5.577 6.882,0 0,0"
         style="fill:#bbbdbf;fill-opacity:1;fill-rule:nonzero;stroke:none"
         id="path2266" /></g><g
       id="g2268"
       transform="translate(250,100.3076)"><path
         d="m 0,0 c -2.291,0 -4.148,1.856 -4.148,4.147 0,2.291 1.857,4.149 4.148,4.149 2.291,0 4.148,-1.858 4.148,-4.149 C 4.148,1.856 2.291,0 0,0"
         style="fill:#808184;fill-opacity:1;fill-rule:nonzero;stroke:none"
         id="path2270" /></g><g
       id="g2272"
       transform="translate(258.6914,102.9932)"><path
         d="M 0,0 C -0.807,0 -1.461,0.654 -1.461,1.462 -1.461,2.27 -0.807,2.924 0,2.924 0.807,2.924 1.462,2.27 1.462,1.462 1.462,0.654 0.807,0 0,0"
         style="fill:#808184;fill-opacity:1;fill-rule:nonzero;stroke:none"
         id="path2274" /></g><g
       id="g2276"
       transform="translate(241.3086,102.9932)"><path
         d="M 0,0 C -0.807,0 -1.462,0.654 -1.462,1.462 -1.462,2.27 -0.807,2.924 0,2.924 0.807,2.924 1.461,2.27 1.461,1.462 1.461,0.654 0.807,0 0,0"
         style="fill:#808184;fill-opacity:1;fill-rule:nonzero;stroke:none"
         id="path2278" /></g><g
       id="g2280"
       transform="translate(248.5381,95.7637)"><path
         d="M 0,0 C 0,0.808 0.655,1.462 1.462,1.462 2.269,1.462 2.924,0.808 2.924,0 2.924,-0.807 2.269,-1.462 1.462,-1.462 0.655,-1.462 0,-0.807 0,0"
         style="fill:#808184;fill-opacity:1;fill-rule:nonzero;stroke:none"
         id="path2282" /></g><g
       id="g2284"
       transform="translate(248.5381,113.1455)"><path
         d="M 0,0 C 0,0.808 0.655,1.462 1.462,1.462 2.269,1.462 2.924,0.808 2.924,0 2.924,-0.807 2.269,-1.461 1.462,-1.461 0.655,-1.461 0,-0.807 0,0"
         style="fill:#808184;fill-opacity:1;fill-rule:nonzero;stroke:none"
         id="path2286" /></g><g
       id="g2288"
       transform="translate(255.1123,97.2764)"><path
         d="m 0,0 c -0.571,0.57 -0.571,1.495 0,2.066 0.571,0.573 1.496,0.573 2.068,0 C 2.638,1.496 2.638,0.57 2.068,0 1.496,-0.57 0.571,-0.57 0,0"
         style="fill:#808184;fill-opacity:1;fill-rule:nonzero;stroke:none"
         id="path2290" /></g><g
       id="g2292"
       transform="translate(242.8213,109.5674)"><path
         d="m 0,0 c -0.571,0.57 -0.571,1.496 0,2.066 0.57,0.571 1.496,0.571 2.066,0 C 2.638,1.496 2.638,0.57 2.066,0 1.495,-0.57 0.57,-0.57 0,0"
         style="fill:#808184;fill-opacity:1;fill-rule:nonzero;stroke:none"
         id="path2294" /></g><g
       id="g2296"
       transform="translate(242.8193,99.3428)"><path
         d="m 0,0 c 0.572,0.572 1.497,0.57 2.068,0 0.572,-0.571 0.572,-1.496 0,-2.066 -0.57,-0.571 -1.496,-0.571 -2.066,0 C -0.569,-1.496 -0.569,-0.57 0,0"
         style="fill:#808184;fill-opacity:1;fill-rule:nonzero;stroke:none"
         id="path2298" /></g><g
       id="g2300"
       transform="translate(255.1123,111.6348)"><path
         d="m 0,0 c 0.57,0.569 1.496,0.569 2.068,-0.001 0.57,-0.57 0.57,-1.496 0,-2.066 C 1.496,-2.638 0.571,-2.638 0,-2.067 -0.571,-1.497 -0.571,-0.57 0,0"
         style="fill:#808184;fill-opacity:1;fill-rule:nonzero;stroke:none"
         id="path2302" /></g><g
       id="g2304"
       transform="translate(234.375,80.5527)"><path
         d="m 0,0 c 0,-1.035 -0.839,-1.875 -1.875,-1.875 -1.036,0 -1.875,0.84 -1.875,1.875 v 47.805 c 0,1.035 0.839,1.875 1.875,1.875 C -0.839,49.68 0,48.84 0,47.805 Z"
         style="fill:#58595b;fill-opacity:1;fill-rule:nonzero;stroke:none"
         id="path2306" /></g><g
       id="g2308"
       transform="translate(269.375,80.5527)"><path
         d="m 0,0 c 0,-1.035 -0.84,-1.875 -1.875,-1.875 -1.035,0 -1.875,0.84 -1.875,1.875 v 47.805 c 0,1.035 0.84,1.875 1.875,1.875 C -0.84,49.68 0,48.84 0,47.805 Z"
         style="fill:#58595b;fill-opacity:1;fill-rule:nonzero;stroke:none"
         id="path2310" /></g></g></svg>
